<svg xmlns="http://www.w3.org/2000/svg" width="512" height="512" viewBox="0 0 512 512">
  <defs>
    <linearGradient id="bg" x1="0%" y1="0%" x2="100%" y2="100%">
      <stop offset="0%" style="stop-color:#3B82F6"/>
      <stop offset="100%" style="stop-color:#1D4ED8"/>
    </linearGradient>
  </defs>
  <rect width="512" height="512" rx="96" fill="url(#bg)"/>
  <!-- Clipboard icon -->
  <rect x="156" y="100" width="200" height="280" rx="20" fill="white" opacity="0.95"/>
  <rect x="196" y="76" width="120" height="48" rx="12" fill="white"/>
  <rect x="216" y="88" width="80" height="24" rx="8" fill="#3B82F6"/>
  <!-- Check lines -->
  <circle cx="200" cy="200" r="14" fill="#22C55E"/>
  <path d="M192,200 L198,206 L210,194" stroke="white" stroke-width="3" fill="none" stroke-linecap="round" stroke-linejoin="round"/>
  <rect x="230" y="192" width="100" height="16" rx="4" fill="#E5E7EB"/>
  <circle cx="200" cy="250" r="14" fill="#22C55E"/>
  <path d="M192,250 L198,256 L210,244" stroke="white" stroke-width="3" fill="none" stroke-linecap="round" stroke-linejoin="round"/>
  <rect x="230" y="242" width="100" height="16" rx="4" fill="#E5E7EB"/>
  <circle cx="200" cy="300" r="14" fill="#F59E0B"/>
  <rect x="230" y="292" width="100" height="16" rx="4" fill="#E5E7EB"/>
  <circle cx="200" cy="350" r="14" fill="#E5E7EB" opacity="0.5"/>
  <rect x="230" y="342" width="100" height="16" rx="4" fill="#E5E7EB" opacity="0.5"/>
  <!-- QR hint bottom-right -->
  <g transform="translate(360, 340)">
    <rect width="100" height="100" rx="12" fill="white" opacity="0.2"/>
    <rect x="12" y="12" width="28" height="28" rx="4" fill="white" opacity="0.8"/>
    <rect x="60" y="12" width="28" height="28" rx="4" fill="white" opacity="0.8"/>
    <rect x="12" y="60" width="28" height="28" rx="4" fill="white" opacity="0.8"/>
    <rect x="60" y="60" width="12" height="12" rx="2" fill="white" opacity="0.8"/>
    <rect x="76" y="76" width="12" height="12" rx="2" fill="white" opacity="0.8"/>
  </g>
</svg>
